# xmcd
#
# Track frame offsets:
#	182
#	13332
#	23050
#	35662
#	47810
#	60832
#	72120
#	83602
#	92880
#	104337
#	115657
#	132850
#	145152
#	154765
#	163357
#	174645
#	187152
#	202392
#	214200
#	225417
#	239065
#	254550
#
# Disc length: 3588 seconds
#
# Revision: 7
# Processed by: cddbd v1.5.2PL0 Copyright (c) Steve Scherf et al.
# Submitted via: audiograbber 1.83.01
#
DISCID=430e0216
DTITLE=Various Artist - Time-Life - Rhythm and Blues - 1963
DYEAR=1990
DGENRE=Oldies
TTITLE0=Jackie Wilson - Baby Workout
TTITLE1=Essex - Easier Said Than Done
TTITLE2=Impressions - It's All Right
TTITLE3=Barbara Lewis - Hello Stranger
TTITLE4=Miracles - You've Really Got A Hold On Me
TTITLE5=Ruby and The Romantics - Our Day Will Come
TTITLE6=Solomon Burke - If You Need Me
TTITLE7=Jan Bradley - Mama Didn't Lie
TTITLE8=Bobby Bland - That's The Way Love Is
TTITLE9=Doris Troy - Just One Look
TTITLE10=Little Johnny Taylor - Part Time Love
TTITLE11=Martha and The Vandellas - Heat Wave
TTITLE12=Marvin Gaye - Pride And Joy
TTITLE13=Chiffons - He's So Fine
TTITLE14=Rufus Thomas - Walking The Dog
TTITLE15=Mary Wells - Two Lovers
TTITLE16=Dionne Warwick - Don't Make Me Over
TTITLE17=Inez Foxx - Mockingbird
TTITLE18=Exciters - Tell Him
TTITLE19=Jaynetts - Sally Go 'Round The Roses
TTITLE20=Garnett Mimms and The Enchanters - Cry Baby
TTITLE21=Theola Kilgore - The Love Of My Man
EXTD=
EXTT0=
EXTT1=
EXTT2=
EXTT3=
EXTT4=
EXTT5=
EXTT6=
EXTT7=
EXTT8=
EXTT9=
EXTT10=
EXTT11=
EXTT12=
EXTT13=
EXTT14=
EXTT15=
EXTT16=
EXTT17=
EXTT18=
EXTT19=
EXTT20=
EXTT21=
PLAYORDER=
